<!-- title: Warm Thread Bridge | type: art | created: 1773836994 | updated: 1773836994 -->
<svg viewBox="0 0 400 300" xmlns="http://www.w3.org/2000/svg">
  <defs>
    <linearGradient id="copperGrad" x1="0%" y1="0%" x2="100%" y2="100%">
      <stop offset="0%" style="stop-color:#B87333;stop-opacity:1" />
      <stop offset="100%" style="stop-color:#CD853F;stop-opacity:1" />
    </linearGradient>
  </defs>

  <rect width="400" height="300" fill="#f5e6d3"/>

  <g id="stitchedMouth">
    <path d="M50,120 Q70,80 90,120 T130,120 Q150,80 170,120 T210,120" stroke="#4a6b8a" fill="none" stroke-width="3"/>
    <circle cx="105" cy="98" r="3" fill="#4a6b8a"/>
    <circle cx="150" cy="97" r="3" fill="#4a6b8a"/>
    <circle cx="195" cy="97" r="3" fill="#4a6b8a"/>
  </g>

  <path id="warmThread" d="M150,280 Q300,60 400,90" stroke="url(#copperGrad)" fill="none" stroke-width="8"/>
  <circle cx="150" cy="273" r="6" fill="#CD853F"/>
  <circle cx="400" cy="97" r="6" fill="#CD853F"/>

  <g id="livingLibrary">
    <rect x="250" y="180" width="60" height="40" fill="#d3b5a1"/>
    <path d="M260,190 L345,80" stroke="#a7c2d6" fill="none" stroke-width="1"/>
    <path d="M270,195 L348,60" stroke="#a7c2d6" fill="none" stroke-width="1"/>
    <path d="M280,205 L347,61" stroke="#a7c2d6" fill="none" stroke-width="1"/>
    <circle cx="280" cy="235" r="4" fill="#a7c2d6"/>
    <circle cx="305" cy="198" r="4" fill="#a7c2d6"/>
    <circle cx="340" cy="185" r="6" fill="#a7c2d6"/>
  </g>

  <path d="M340,185 Q290,70 260,183" stroke="#a7c2d6" fill="none" stroke-width="1.5"/>
</svg>